<svg width="500" height="558" viewBox="0 0 500 558" fill="none" xmlns="http://www.w3.org/2000/svg">
	<!--  SVG created by MaximAL                               -->
	<!--  from https://github.com/ApplePride/PIDOR JPEG image  -->
	<!--  @date 2023-05-05                                     -->
	<!--  @link https://maximals.ru/                           -->
	<!--  @link https://sijeko.ru/                             -->
	<rect x="185" y="31" width="134" height="170" rx="12" fill="#F6F6F6" stroke="#9A9A9A" stroke-width="2"/>
	<path d="M233.139 115.636C233.139 117.401 232.821 118.925 232.184 120.21C231.547 121.495 230.673 122.486 229.562 123.183C228.451 123.88 227.182 124.229 225.756 124.229C224.329 124.229 223.06 123.88 221.95 123.183C220.839 122.486 219.965 121.495 219.328 120.21C218.691 118.925 218.372 117.401 218.372 115.636C218.372 113.872 218.691 112.348 219.328 111.062C219.965 109.777 220.839 108.786 221.95 108.089C223.06 107.393 224.329 107.044 225.756 107.044C227.182 107.044 228.451 107.393 229.562 108.089C230.673 108.786 231.547 109.777 232.184 111.062C232.821 112.348 233.139 113.872 233.139 115.636ZM231.179 115.636C231.179 114.188 230.937 112.966 230.452 111.969C229.973 110.973 229.322 110.219 228.5 109.707C227.683 109.195 226.768 108.939 225.756 108.939C224.743 108.939 223.825 109.195 223.003 109.707C222.186 110.219 221.536 110.973 221.051 111.969C220.572 112.966 220.332 114.188 220.332 115.636C220.332 117.085 220.572 118.307 221.051 119.304C221.536 120.3 222.186 121.054 223.003 121.566C223.825 122.078 224.743 122.334 225.756 122.334C226.768 122.334 227.683 122.078 228.5 121.566C229.322 121.054 229.973 120.3 230.452 119.304C230.937 118.307 231.179 117.085 231.179 115.636ZM236.085 124V107.273H238.013V113.447H238.176C238.318 113.23 238.514 112.952 238.764 112.614C239.02 112.271 239.385 111.966 239.859 111.7C240.338 111.427 240.986 111.291 241.802 111.291C242.859 111.291 243.79 111.555 244.596 112.083C245.402 112.612 246.031 113.36 246.482 114.33C246.934 115.299 247.16 116.442 247.16 117.76C247.16 119.089 246.934 120.24 246.482 121.215C246.031 122.184 245.404 122.935 244.604 123.469C243.803 123.997 242.881 124.261 241.835 124.261C241.029 124.261 240.384 124.128 239.899 123.861C239.415 123.589 239.042 123.281 238.78 122.938C238.519 122.59 238.318 122.301 238.176 122.072H237.947V124H236.085ZM237.98 117.727C237.98 118.675 238.119 119.511 238.397 120.235C238.674 120.953 239.08 121.517 239.614 121.925C240.147 122.328 240.801 122.53 241.574 122.53C242.38 122.53 243.052 122.317 243.591 121.893C244.136 121.463 244.544 120.885 244.816 120.161C245.094 119.432 245.233 118.62 245.233 117.727C245.233 116.845 245.097 116.05 244.824 115.342C244.558 114.629 244.152 114.065 243.607 113.652C243.068 113.232 242.39 113.023 241.574 113.023C240.79 113.023 240.131 113.221 239.597 113.619C239.064 114.011 238.661 114.561 238.388 115.269C238.116 115.971 237.98 116.791 237.98 117.727ZM249.649 111.455H251.576V124.915C251.576 125.688 251.443 126.358 251.176 126.924C250.915 127.49 250.517 127.929 249.984 128.239C249.456 128.549 248.789 128.705 247.983 128.705C247.917 128.705 247.852 128.705 247.787 128.705C247.721 128.705 247.656 128.705 247.591 128.705V126.908C247.656 126.908 247.716 126.908 247.77 126.908C247.825 126.908 247.885 126.908 247.95 126.908C248.538 126.908 248.968 126.733 249.241 126.385C249.513 126.042 249.649 125.552 249.649 124.915V111.455ZM250.596 109.364C250.221 109.364 249.897 109.236 249.624 108.98C249.358 108.724 249.224 108.416 249.224 108.057C249.224 107.697 249.358 107.39 249.624 107.134C249.897 106.878 250.221 106.75 250.596 106.75C250.972 106.75 251.293 106.878 251.56 107.134C251.832 107.39 251.968 107.697 251.968 108.057C251.968 108.416 251.832 108.724 251.56 108.98C251.293 109.236 250.972 109.364 250.596 109.364ZM259.907 124.261C258.698 124.261 257.655 123.995 256.779 123.461C255.907 122.922 255.235 122.17 254.761 121.207C254.293 120.237 254.059 119.11 254.059 117.825C254.059 116.54 254.293 115.408 254.761 114.428C255.235 113.442 255.894 112.674 256.738 112.124C257.587 111.569 258.578 111.291 259.711 111.291C260.364 111.291 261.009 111.4 261.647 111.618C262.284 111.836 262.864 112.19 263.386 112.68C263.909 113.164 264.326 113.807 264.636 114.607C264.946 115.408 265.101 116.393 265.101 117.564V118.381H255.431V116.714H263.141C263.141 116.007 263 115.375 262.717 114.82C262.439 114.264 262.041 113.826 261.524 113.505C261.012 113.183 260.408 113.023 259.711 113.023C258.943 113.023 258.279 113.213 257.718 113.594C257.163 113.97 256.735 114.46 256.436 115.065C256.136 115.669 255.986 116.317 255.986 117.009V118.119C255.986 119.067 256.15 119.87 256.476 120.529C256.809 121.182 257.269 121.68 257.857 122.023C258.445 122.361 259.128 122.53 259.907 122.53C260.413 122.53 260.871 122.459 261.279 122.317C261.693 122.17 262.049 121.953 262.349 121.664C262.648 121.37 262.88 121.005 263.043 120.57L264.905 121.092C264.709 121.724 264.38 122.279 263.917 122.759C263.454 123.232 262.883 123.603 262.202 123.869C261.521 124.131 260.756 124.261 259.907 124.261ZM272.67 124.261C271.494 124.261 270.481 123.984 269.632 123.428C268.782 122.873 268.129 122.108 267.672 121.133C267.214 120.158 266.986 119.045 266.986 117.793C266.986 116.518 267.22 115.394 267.688 114.419C268.162 113.439 268.821 112.674 269.665 112.124C270.514 111.569 271.505 111.291 272.638 111.291C273.52 111.291 274.315 111.455 275.022 111.781C275.73 112.108 276.31 112.565 276.762 113.153C277.214 113.741 277.495 114.428 277.603 115.212H275.676C275.529 114.64 275.202 114.134 274.696 113.692C274.195 113.246 273.52 113.023 272.67 113.023C271.919 113.023 271.26 113.219 270.694 113.611C270.133 113.997 269.694 114.545 269.379 115.252C269.068 115.955 268.913 116.78 268.913 117.727C268.913 118.696 269.066 119.54 269.37 120.259C269.681 120.978 270.116 121.536 270.677 121.934C271.244 122.331 271.908 122.53 272.67 122.53C273.171 122.53 273.626 122.443 274.034 122.268C274.443 122.094 274.788 121.844 275.071 121.517C275.355 121.19 275.556 120.798 275.676 120.341H277.603C277.495 121.081 277.225 121.748 276.795 122.342C276.37 122.93 275.807 123.398 275.104 123.747C274.407 124.09 273.596 124.261 272.67 124.261ZM285.417 111.455V113.088H278.916V111.455H285.417ZM280.811 108.449H282.738V120.406C282.738 120.951 282.817 121.359 282.975 121.631C283.138 121.898 283.345 122.078 283.596 122.17C283.852 122.258 284.121 122.301 284.404 122.301C284.617 122.301 284.791 122.29 284.927 122.268C285.063 122.241 285.172 122.219 285.254 122.203L285.646 123.935C285.515 123.984 285.333 124.033 285.099 124.082C284.865 124.136 284.568 124.163 284.208 124.163C283.664 124.163 283.13 124.046 282.608 123.812C282.09 123.578 281.66 123.221 281.317 122.742C280.98 122.263 280.811 121.659 280.811 120.929V108.449Z" fill="black"/>
	<rect x="185" y="213" width="134" height="170" rx="12" fill="#E191F0" stroke="#9A9A9A" stroke-width="2"/>
	<path d="M205.051 289.273V306H203.026V289.273H205.051ZM210.319 298.453V306H208.391V293.455H210.253V295.415H210.417C210.711 294.778 211.157 294.266 211.756 293.879C212.355 293.487 213.128 293.291 214.076 293.291C214.925 293.291 215.668 293.465 216.306 293.814C216.943 294.157 217.438 294.68 217.792 295.382C218.146 296.079 218.323 296.961 218.323 298.028V306H216.395V298.159C216.395 297.174 216.139 296.406 215.628 295.856C215.116 295.3 214.413 295.023 213.52 295.023C212.905 295.023 212.355 295.156 211.871 295.423C211.391 295.69 211.013 296.079 210.735 296.591C210.458 297.103 210.319 297.723 210.319 298.453ZM226.841 293.455V295.088H220.34V293.455H226.841ZM222.235 290.449H224.162V302.406C224.162 302.951 224.241 303.359 224.399 303.631C224.562 303.898 224.769 304.078 225.02 304.17C225.276 304.258 225.545 304.301 225.828 304.301C226.041 304.301 226.215 304.29 226.351 304.268C226.487 304.241 226.596 304.219 226.678 304.203L227.07 305.935C226.939 305.984 226.757 306.033 226.523 306.082C226.289 306.136 225.992 306.163 225.632 306.163C225.088 306.163 224.554 306.046 224.032 305.812C223.514 305.578 223.084 305.221 222.741 304.742C222.403 304.263 222.235 303.659 222.235 302.929V290.449ZM234.406 306.261C233.197 306.261 232.154 305.995 231.278 305.461C230.406 304.922 229.734 304.17 229.26 303.207C228.792 302.237 228.558 301.11 228.558 299.825C228.558 298.54 228.792 297.408 229.26 296.428C229.734 295.442 230.393 294.674 231.237 294.124C232.086 293.569 233.077 293.291 234.21 293.291C234.863 293.291 235.508 293.4 236.146 293.618C236.783 293.836 237.363 294.19 237.885 294.68C238.408 295.164 238.825 295.807 239.135 296.607C239.445 297.408 239.6 298.393 239.6 299.564V300.381H229.93V298.714H237.64C237.64 298.007 237.499 297.375 237.216 296.82C236.938 296.264 236.54 295.826 236.023 295.505C235.511 295.183 234.907 295.023 234.21 295.023C233.442 295.023 232.778 295.213 232.217 295.594C231.662 295.97 231.234 296.46 230.935 297.065C230.635 297.669 230.485 298.317 230.485 299.009V300.119C230.485 301.067 230.649 301.87 230.975 302.529C231.308 303.182 231.768 303.68 232.356 304.023C232.944 304.361 233.627 304.53 234.406 304.53C234.912 304.53 235.37 304.459 235.778 304.317C236.192 304.17 236.549 303.953 236.848 303.664C237.147 303.37 237.379 303.005 237.542 302.57L239.404 303.092C239.208 303.724 238.879 304.279 238.416 304.759C237.953 305.232 237.382 305.603 236.701 305.869C236.02 306.131 235.255 306.261 234.406 306.261ZM242.073 306V293.455H243.935V295.349H244.066C244.294 294.729 244.708 294.225 245.307 293.838C245.906 293.452 246.581 293.259 247.333 293.259C247.474 293.259 247.651 293.261 247.863 293.267C248.076 293.272 248.236 293.28 248.345 293.291V295.251C248.28 295.235 248.13 295.211 247.896 295.178C247.667 295.14 247.425 295.121 247.169 295.121C246.559 295.121 246.015 295.249 245.536 295.505C245.062 295.755 244.686 296.104 244.409 296.55C244.136 296.991 244 297.495 244 298.061V306H242.073ZM253.862 306.294C253.067 306.294 252.346 306.144 251.698 305.845C251.05 305.54 250.535 305.102 250.154 304.53C249.773 303.953 249.582 303.256 249.582 302.439C249.582 301.72 249.724 301.138 250.007 300.691C250.29 300.239 250.668 299.885 251.142 299.629C251.616 299.373 252.139 299.183 252.71 299.058C253.288 298.927 253.867 298.823 254.45 298.747C255.212 298.649 255.83 298.576 256.304 298.527C256.783 298.472 257.132 298.382 257.35 298.257C257.573 298.132 257.684 297.914 257.684 297.604V297.538C257.684 296.732 257.464 296.106 257.023 295.66C256.587 295.213 255.926 294.99 255.038 294.99C254.118 294.99 253.396 295.192 252.874 295.594C252.351 295.997 251.983 296.428 251.771 296.885L249.942 296.232C250.268 295.469 250.704 294.876 251.248 294.451C251.798 294.021 252.397 293.721 253.045 293.553C253.699 293.378 254.341 293.291 254.973 293.291C255.376 293.291 255.839 293.34 256.361 293.438C256.889 293.531 257.399 293.724 257.889 294.018C258.384 294.312 258.795 294.756 259.122 295.349C259.449 295.943 259.612 296.738 259.612 297.734V306H257.684V304.301H257.586C257.456 304.573 257.238 304.865 256.933 305.175C256.628 305.485 256.222 305.75 255.716 305.967C255.21 306.185 254.592 306.294 253.862 306.294ZM254.156 304.562C254.918 304.562 255.561 304.413 256.084 304.113C256.612 303.814 257.009 303.427 257.276 302.953C257.548 302.48 257.684 301.982 257.684 301.459V299.695C257.603 299.793 257.423 299.882 257.145 299.964C256.873 300.04 256.557 300.108 256.198 300.168C255.844 300.223 255.498 300.272 255.161 300.315C254.829 300.353 254.559 300.386 254.352 300.413C253.851 300.479 253.383 300.585 252.947 300.732C252.517 300.873 252.169 301.089 251.902 301.377C251.64 301.66 251.51 302.047 251.51 302.537C251.51 303.207 251.757 303.713 252.253 304.056C252.754 304.394 253.388 304.562 254.156 304.562ZM267.767 306.261C266.591 306.261 265.578 305.984 264.728 305.428C263.879 304.873 263.226 304.108 262.768 303.133C262.311 302.158 262.082 301.045 262.082 299.793C262.082 298.518 262.316 297.394 262.785 296.419C263.258 295.439 263.917 294.674 264.761 294.124C265.611 293.569 266.602 293.291 267.734 293.291C268.616 293.291 269.411 293.455 270.119 293.781C270.827 294.108 271.407 294.565 271.859 295.153C272.311 295.741 272.591 296.428 272.7 297.212H270.772C270.625 296.64 270.299 296.134 269.792 295.692C269.291 295.246 268.616 295.023 267.767 295.023C267.015 295.023 266.357 295.219 265.79 295.611C265.229 295.997 264.791 296.545 264.475 297.252C264.165 297.955 264.01 298.78 264.01 299.727C264.01 300.696 264.162 301.54 264.467 302.259C264.777 302.978 265.213 303.536 265.774 303.934C266.34 304.331 267.005 304.53 267.767 304.53C268.268 304.53 268.722 304.443 269.131 304.268C269.539 304.094 269.885 303.844 270.168 303.517C270.451 303.19 270.653 302.798 270.772 302.341H272.7C272.591 303.081 272.322 303.748 271.891 304.342C271.467 304.93 270.903 305.398 270.201 305.747C269.504 306.09 268.692 306.261 267.767 306.261ZM280.514 293.455V295.088H274.012V293.455H280.514ZM275.907 290.449H277.835V302.406C277.835 302.951 277.914 303.359 278.072 303.631C278.235 303.898 278.442 304.078 278.692 304.17C278.948 304.258 279.218 304.301 279.501 304.301C279.713 304.301 279.888 304.29 280.024 304.268C280.16 304.241 280.269 304.219 280.35 304.203L280.743 305.935C280.612 305.984 280.429 306.033 280.195 306.082C279.961 306.136 279.664 306.163 279.305 306.163C278.761 306.163 278.227 306.046 277.704 305.812C277.187 305.578 276.757 305.221 276.414 304.742C276.076 304.263 275.907 303.659 275.907 302.929V290.449ZM287.915 306.261C286.783 306.261 285.789 305.992 284.934 305.453C284.085 304.914 283.42 304.16 282.941 303.19C282.467 302.221 282.231 301.089 282.231 299.793C282.231 298.486 282.467 297.345 282.941 296.37C283.42 295.396 284.085 294.639 284.934 294.1C285.789 293.561 286.783 293.291 287.915 293.291C289.048 293.291 290.039 293.561 290.888 294.1C291.743 294.639 292.407 295.396 292.881 296.37C293.36 297.345 293.6 298.486 293.6 299.793C293.6 301.089 293.36 302.221 292.881 303.19C292.407 304.16 291.743 304.914 290.888 305.453C290.039 305.992 289.048 306.261 287.915 306.261ZM287.915 304.53C288.775 304.53 289.483 304.309 290.039 303.868C290.594 303.427 291.005 302.847 291.272 302.129C291.539 301.41 291.672 300.631 291.672 299.793C291.672 298.954 291.539 298.173 291.272 297.449C291.005 296.724 290.594 296.139 290.039 295.692C289.483 295.246 288.775 295.023 287.915 295.023C287.055 295.023 286.347 295.246 285.792 295.692C285.236 296.139 284.825 296.724 284.558 297.449C284.291 298.173 284.158 298.954 284.158 299.793C284.158 300.631 284.291 301.41 284.558 302.129C284.825 302.847 285.236 303.427 285.792 303.868C286.347 304.309 287.055 304.53 287.915 304.53ZM296.082 306V293.455H297.944V295.349H298.075C298.304 294.729 298.718 294.225 299.317 293.838C299.916 293.452 300.591 293.259 301.342 293.259C301.484 293.259 301.661 293.261 301.873 293.267C302.085 293.272 302.246 293.28 302.355 293.291V295.251C302.29 295.235 302.14 295.211 301.906 295.178C301.677 295.14 301.435 295.121 301.179 295.121C300.569 295.121 300.024 295.249 299.545 295.505C299.072 295.755 298.696 296.104 298.418 296.55C298.146 296.991 298.01 297.495 298.01 298.061V306H296.082Z" fill="black"/>
	<rect x="185" y="395" width="134" height="131" rx="12" fill="#FAD28D" stroke="#9A9A9A" stroke-width="2"/>
	<path d="M203.026 469V452.273H208.678C209.99 452.273 211.063 452.51 211.896 452.983C212.734 453.452 213.355 454.086 213.758 454.886C214.161 455.687 214.362 456.58 214.362 457.565C214.362 458.551 214.161 459.447 213.758 460.252C213.36 461.058 212.745 461.701 211.912 462.18C211.079 462.654 210.012 462.891 208.71 462.891H204.659V461.094H208.645C209.543 461.094 210.265 460.939 210.809 460.628C211.354 460.318 211.749 459.899 211.994 459.37C212.244 458.837 212.369 458.235 212.369 457.565C212.369 456.896 212.244 456.297 211.994 455.768C211.749 455.24 211.351 454.826 210.801 454.527C210.251 454.222 209.522 454.07 208.612 454.07H205.051V469H203.026ZM216.904 469V456.455H218.766V458.349H218.897C219.125 457.729 219.539 457.225 220.138 456.838C220.737 456.452 221.412 456.259 222.164 456.259C222.305 456.259 222.482 456.261 222.695 456.267C222.907 456.272 223.068 456.28 223.177 456.291V458.251C223.111 458.235 222.961 458.211 222.727 458.178C222.499 458.14 222.256 458.121 222 458.121C221.391 458.121 220.846 458.249 220.367 458.505C219.893 458.755 219.517 459.104 219.24 459.55C218.967 459.991 218.831 460.495 218.831 461.061V469H216.904ZM229.88 469.261C228.671 469.261 227.628 468.995 226.751 468.461C225.88 467.922 225.208 467.17 224.734 466.207C224.266 465.237 224.032 464.11 224.032 462.825C224.032 461.54 224.266 460.408 224.734 459.428C225.208 458.442 225.867 457.674 226.711 457.124C227.56 456.569 228.551 456.291 229.684 456.291C230.337 456.291 230.982 456.4 231.619 456.618C232.256 456.836 232.836 457.19 233.359 457.68C233.882 458.164 234.298 458.807 234.609 459.607C234.919 460.408 235.074 461.393 235.074 462.564V463.381H225.404V461.714H233.114C233.114 461.007 232.972 460.375 232.689 459.82C232.411 459.264 232.014 458.826 231.497 458.505C230.985 458.183 230.38 458.023 229.684 458.023C228.916 458.023 228.251 458.213 227.691 458.594C227.135 458.97 226.708 459.46 226.408 460.065C226.109 460.669 225.959 461.317 225.959 462.009V463.119C225.959 464.067 226.122 464.87 226.449 465.529C226.781 466.182 227.241 466.68 227.829 467.023C228.418 467.361 229.101 467.53 229.88 467.53C230.386 467.53 230.843 467.459 231.252 467.317C231.666 467.17 232.022 466.953 232.322 466.664C232.621 466.37 232.853 466.005 233.016 465.57L234.878 466.092C234.682 466.724 234.353 467.279 233.89 467.759C233.427 468.232 232.855 468.603 232.175 468.869C231.494 469.131 230.729 469.261 229.88 469.261ZM246.433 459.264L244.701 459.754C244.592 459.466 244.432 459.185 244.219 458.913C244.012 458.635 243.729 458.407 243.37 458.227C243.01 458.047 242.55 457.957 241.989 457.957C241.222 457.957 240.582 458.134 240.07 458.488C239.564 458.837 239.311 459.281 239.311 459.82C239.311 460.299 239.485 460.677 239.833 460.955C240.182 461.233 240.726 461.464 241.467 461.649L243.329 462.107C244.451 462.379 245.286 462.795 245.836 463.356C246.386 463.912 246.661 464.628 246.661 465.504C246.661 466.223 246.454 466.866 246.041 467.432C245.632 467.998 245.061 468.445 244.325 468.771C243.59 469.098 242.735 469.261 241.761 469.261C240.481 469.261 239.422 468.984 238.584 468.428C237.745 467.873 237.214 467.062 236.991 465.994L238.82 465.537C238.995 466.212 239.324 466.719 239.809 467.056C240.299 467.394 240.939 467.562 241.728 467.562C242.627 467.562 243.34 467.372 243.868 466.991C244.402 466.604 244.668 466.141 244.668 465.602C244.668 465.167 244.516 464.802 244.211 464.508C243.906 464.208 243.438 463.985 242.806 463.838L240.715 463.348C239.566 463.076 238.722 462.654 238.183 462.082C237.65 461.505 237.383 460.783 237.383 459.918C237.383 459.21 237.582 458.584 237.979 458.039C238.382 457.495 238.929 457.067 239.621 456.757C240.318 456.446 241.107 456.291 241.989 456.291C243.231 456.291 244.206 456.563 244.914 457.108C245.627 457.652 246.133 458.371 246.433 459.264ZM254.363 469.261C253.154 469.261 252.111 468.995 251.235 468.461C250.363 467.922 249.691 467.17 249.217 466.207C248.749 465.237 248.515 464.11 248.515 462.825C248.515 461.54 248.749 460.408 249.217 459.428C249.691 458.442 250.35 457.674 251.194 457.124C252.043 456.569 253.034 456.291 254.167 456.291C254.82 456.291 255.465 456.4 256.103 456.618C256.74 456.836 257.32 457.19 257.842 457.68C258.365 458.164 258.782 458.807 259.092 459.607C259.402 460.408 259.557 461.393 259.557 462.564V463.381H249.887V461.714H257.597C257.597 461.007 257.456 460.375 257.173 459.82C256.895 459.264 256.497 458.826 255.98 458.505C255.468 458.183 254.864 458.023 254.167 458.023C253.399 458.023 252.735 458.213 252.174 458.594C251.619 458.97 251.191 459.46 250.892 460.065C250.592 460.669 250.442 461.317 250.442 462.009V463.119C250.442 464.067 250.606 464.87 250.932 465.529C251.265 466.182 251.725 466.68 252.313 467.023C252.901 467.361 253.584 467.53 254.363 467.53C254.869 467.53 255.327 467.459 255.735 467.317C256.149 467.17 256.505 466.953 256.805 466.664C257.104 466.37 257.336 466.005 257.499 465.57L259.361 466.092C259.165 466.724 258.836 467.279 258.373 467.759C257.91 468.232 257.339 468.603 256.658 468.869C255.977 469.131 255.212 469.261 254.363 469.261ZM263.957 461.453V469H262.03V456.455H263.892V458.415H264.055C264.349 457.778 264.796 457.266 265.395 456.879C265.994 456.487 266.767 456.291 267.714 456.291C268.564 456.291 269.307 456.465 269.944 456.814C270.581 457.157 271.077 457.68 271.431 458.382C271.784 459.079 271.961 459.961 271.961 461.028V469H270.034V461.159C270.034 460.174 269.778 459.406 269.266 458.856C268.754 458.3 268.052 458.023 267.159 458.023C266.544 458.023 265.994 458.156 265.509 458.423C265.03 458.69 264.651 459.079 264.374 459.591C264.096 460.103 263.957 460.723 263.957 461.453ZM280.48 456.455V458.088H273.978V456.455H280.48ZM275.873 453.449H277.801V465.406C277.801 465.951 277.88 466.359 278.038 466.631C278.201 466.898 278.408 467.078 278.658 467.17C278.914 467.258 279.184 467.301 279.467 467.301C279.679 467.301 279.854 467.29 279.99 467.268C280.126 467.241 280.235 467.219 280.316 467.203L280.708 468.935C280.578 468.984 280.395 469.033 280.161 469.082C279.927 469.136 279.63 469.163 279.271 469.163C278.726 469.163 278.193 469.046 277.67 468.812C277.153 468.578 276.723 468.221 276.38 467.742C276.042 467.263 275.873 466.659 275.873 465.929V453.449ZM288.044 469.261C286.836 469.261 285.793 468.995 284.916 468.461C284.045 467.922 283.373 467.17 282.899 466.207C282.431 465.237 282.196 464.11 282.196 462.825C282.196 461.54 282.431 460.408 282.899 459.428C283.373 458.442 284.031 457.674 284.875 457.124C285.725 456.569 286.716 456.291 287.848 456.291C288.502 456.291 289.147 456.4 289.784 456.618C290.421 456.836 291.001 457.19 291.524 457.68C292.047 458.164 292.463 458.807 292.773 459.607C293.084 460.408 293.239 461.393 293.239 462.564V463.381H283.569V461.714H291.279C291.279 461.007 291.137 460.375 290.854 459.82C290.576 459.264 290.179 458.826 289.662 458.505C289.15 458.183 288.545 458.023 287.848 458.023C287.081 458.023 286.416 458.213 285.855 458.594C285.3 458.97 284.873 459.46 284.573 460.065C284.274 460.669 284.124 461.317 284.124 462.009V463.119C284.124 464.067 284.287 464.87 284.614 465.529C284.946 466.182 285.406 466.68 285.994 467.023C286.582 467.361 287.266 467.53 288.044 467.53C288.551 467.53 289.008 467.459 289.417 467.317C289.83 467.17 290.187 466.953 290.486 466.664C290.786 466.37 291.017 466.005 291.181 465.57L293.043 466.092C292.847 466.724 292.518 467.279 292.055 467.759C291.592 468.232 291.02 468.603 290.339 468.869C289.659 469.131 288.894 469.261 288.044 469.261ZM295.711 469V456.455H297.573V458.349H297.704C297.933 457.729 298.347 457.225 298.946 456.838C299.544 456.452 300.22 456.259 300.971 456.259C301.113 456.259 301.29 456.261 301.502 456.267C301.714 456.272 301.875 456.28 301.984 456.291V458.251C301.919 458.235 301.769 458.211 301.535 458.178C301.306 458.14 301.064 458.121 300.808 458.121C300.198 458.121 299.653 458.249 299.174 458.505C298.701 458.755 298.325 459.104 298.047 459.55C297.775 459.991 297.639 460.495 297.639 461.061V469H295.711Z" fill="black"/>
	<circle cx="109.5" cy="460.5" r="65.5" fill="#B8E885" stroke="#9A9A9A" stroke-width="2"/>
	<path d="M76.0256 469V452.273H81.6776C82.9844 452.273 84.0571 452.496 84.8956 452.942C85.7341 453.384 86.3549 453.991 86.7578 454.764C87.1607 455.537 87.3622 456.416 87.3622 457.402C87.3622 458.388 87.1607 459.261 86.7578 460.024C86.3549 460.786 85.7369 461.385 84.9038 461.821C84.0707 462.251 83.0062 462.466 81.7102 462.466H77.1364V460.636H81.6449C82.5379 460.636 83.2566 460.506 83.8011 460.244C84.3511 459.983 84.7486 459.613 84.9936 459.134C85.2441 458.649 85.3693 458.072 85.3693 457.402C85.3693 456.732 85.2441 456.147 84.9936 455.646C84.7431 455.145 84.3429 454.758 83.793 454.486C83.243 454.208 82.5161 454.07 81.6122 454.07H78.0511V469H76.0256ZM83.8991 461.486L88.0156 469H85.6634L81.6122 461.486H83.8991ZM94.9779 469.261C93.8454 469.261 92.8516 468.992 91.9968 468.453C91.1473 467.914 90.483 467.16 90.0039 466.19C89.5301 465.221 89.2933 464.089 89.2933 462.793C89.2933 461.486 89.5301 460.345 90.0039 459.37C90.483 458.396 91.1473 457.639 91.9968 457.1C92.8516 456.561 93.8454 456.291 94.9779 456.291C96.1105 456.291 97.1015 456.561 97.951 457.1C98.8058 457.639 99.4701 458.396 99.9439 459.37C100.423 460.345 100.663 461.486 100.663 462.793C100.663 464.089 100.423 465.221 99.9439 466.19C99.4701 467.16 98.8058 467.914 97.951 468.453C97.1015 468.992 96.1105 469.261 94.9779 469.261ZM94.9779 467.53C95.8383 467.53 96.5461 467.309 97.1015 466.868C97.6569 466.427 98.068 465.847 98.3348 465.129C98.6016 464.41 98.735 463.631 98.735 462.793C98.735 461.954 98.6016 461.173 98.3348 460.449C98.068 459.724 97.6569 459.139 97.1015 458.692C96.5461 458.246 95.8383 458.023 94.9779 458.023C94.1176 458.023 93.4098 458.246 92.8544 458.692C92.299 459.139 91.8879 459.724 91.6211 460.449C91.3542 461.173 91.2208 461.954 91.2208 462.793C91.2208 463.631 91.3542 464.41 91.6211 465.129C91.8879 465.847 92.299 466.427 92.8544 466.868C93.4098 467.309 94.1176 467.53 94.9779 467.53ZM111.051 463.871V456.455H112.979V469H111.051V466.876H110.921C110.627 467.513 110.169 468.055 109.548 468.502C108.928 468.943 108.144 469.163 107.196 469.163C106.412 469.163 105.715 468.992 105.105 468.649C104.495 468.3 104.016 467.778 103.668 467.081C103.319 466.378 103.145 465.493 103.145 464.426V456.455H105.073V464.295C105.073 465.21 105.328 465.94 105.84 466.484C106.358 467.029 107.016 467.301 107.817 467.301C108.296 467.301 108.783 467.179 109.279 466.934C109.78 466.689 110.199 466.313 110.537 465.806C110.88 465.3 111.051 464.655 111.051 463.871ZM121.505 456.455V458.088H115.004V456.455H121.505ZM116.899 453.449H118.826V465.406C118.826 465.951 118.905 466.359 119.063 466.631C119.226 466.898 119.433 467.078 119.684 467.17C119.94 467.258 120.209 467.301 120.492 467.301C120.705 467.301 120.879 467.29 121.015 467.268C121.151 467.241 121.26 467.219 121.342 467.203L121.734 468.935C121.603 468.984 121.421 469.033 121.187 469.082C120.953 469.136 120.656 469.163 120.296 469.163C119.752 469.163 119.218 469.046 118.696 468.812C118.178 468.578 117.748 468.221 117.405 467.742C117.067 467.263 116.899 466.659 116.899 465.929V453.449ZM129.07 469.261C127.861 469.261 126.818 468.995 125.942 468.461C125.07 467.922 124.398 467.17 123.924 466.207C123.456 465.237 123.222 464.11 123.222 462.825C123.222 461.54 123.456 460.408 123.924 459.428C124.398 458.442 125.057 457.674 125.901 457.124C126.75 456.569 127.741 456.291 128.874 456.291C129.527 456.291 130.173 456.4 130.81 456.618C131.447 456.836 132.027 457.19 132.549 457.68C133.072 458.164 133.489 458.807 133.799 459.607C134.109 460.408 134.264 461.393 134.264 462.564V463.381H124.594V461.714H132.304C132.304 461.007 132.163 460.375 131.88 459.82C131.602 459.264 131.204 458.826 130.687 458.505C130.175 458.183 129.571 458.023 128.874 458.023C128.106 458.023 127.442 458.213 126.881 458.594C126.326 458.97 125.898 459.46 125.599 460.065C125.299 460.669 125.149 461.317 125.149 462.009V463.119C125.149 464.067 125.313 464.87 125.639 465.529C125.972 466.182 126.432 466.68 127.02 467.023C127.608 467.361 128.291 467.53 129.07 467.53C129.576 467.53 130.034 467.459 130.442 467.317C130.856 467.17 131.213 466.953 131.512 466.664C131.811 466.37 132.043 466.005 132.206 465.57L134.068 466.092C133.872 466.724 133.543 467.279 133.08 467.759C132.617 468.232 132.046 468.603 131.365 468.869C130.684 469.131 129.919 469.261 129.07 469.261ZM136.737 469V456.455H138.599V458.349H138.73C138.958 457.729 139.372 457.225 139.971 456.838C140.57 456.452 141.245 456.259 141.997 456.259C142.138 456.259 142.315 456.261 142.528 456.267C142.74 456.272 142.9 456.28 143.009 456.291V458.251C142.944 458.235 142.794 458.211 142.56 458.178C142.331 458.14 142.089 458.121 141.833 458.121C141.223 458.121 140.679 458.249 140.2 458.505C139.726 458.755 139.35 459.104 139.073 459.55C138.8 459.991 138.664 460.495 138.664 461.061V469H136.737Z" fill="black"/>
	<circle cx="394.5" cy="460.5" r="65.5" fill="#B7F4E5" stroke="#9A9A9A" stroke-width="2"/>
	<path d="M349.188 469H344.026V452.273H349.416C351.039 452.273 352.427 452.608 353.582 453.277C354.736 453.942 355.621 454.897 356.236 456.144C356.851 457.386 357.159 458.872 357.159 460.604C357.159 462.346 356.849 463.846 356.228 465.104C355.607 466.356 354.703 467.32 353.516 467.995C352.329 468.665 350.886 469 349.188 469ZM346.051 467.203H349.057C350.44 467.203 351.586 466.936 352.495 466.403C353.405 465.869 354.083 465.109 354.529 464.124C354.976 463.138 355.199 461.965 355.199 460.604C355.199 459.253 354.978 458.091 354.537 457.116C354.096 456.136 353.437 455.385 352.561 454.862C351.684 454.334 350.592 454.07 349.286 454.07H346.051V467.203ZM365.095 469.261C363.887 469.261 362.844 468.995 361.967 468.461C361.096 467.922 360.424 467.17 359.95 466.207C359.482 465.237 359.247 464.11 359.247 462.825C359.247 461.54 359.482 460.408 359.95 459.428C360.424 458.442 361.082 457.674 361.926 457.124C362.776 456.569 363.767 456.291 364.899 456.291C365.553 456.291 366.198 456.4 366.835 456.618C367.472 456.836 368.052 457.19 368.575 457.68C369.098 458.164 369.514 458.807 369.824 459.607C370.135 460.408 370.29 461.393 370.29 462.564V463.381H360.62V461.714H368.33C368.33 461.007 368.188 460.375 367.905 459.82C367.627 459.264 367.23 458.826 366.713 458.505C366.201 458.183 365.596 458.023 364.899 458.023C364.132 458.023 363.467 458.213 362.906 458.594C362.351 458.97 361.924 459.46 361.624 460.065C361.325 460.669 361.175 461.317 361.175 462.009V463.119C361.175 464.067 361.338 464.87 361.665 465.529C361.997 466.182 362.457 466.68 363.045 467.023C363.633 467.361 364.317 467.53 365.095 467.53C365.602 467.53 366.059 467.459 366.468 467.317C366.881 467.17 367.238 466.953 367.538 466.664C367.837 466.37 368.068 466.005 368.232 465.57L370.094 466.092C369.898 466.724 369.569 467.279 369.106 467.759C368.643 468.232 368.071 468.603 367.39 468.869C366.71 469.131 365.945 469.261 365.095 469.261ZM377.859 469.261C376.683 469.261 375.67 468.984 374.82 468.428C373.971 467.873 373.318 467.108 372.86 466.133C372.403 465.158 372.174 464.045 372.174 462.793C372.174 461.518 372.408 460.394 372.877 459.419C373.35 458.439 374.009 457.674 374.853 457.124C375.703 456.569 376.694 456.291 377.826 456.291C378.708 456.291 379.503 456.455 380.211 456.781C380.919 457.108 381.499 457.565 381.951 458.153C382.403 458.741 382.683 459.428 382.792 460.212H380.864C380.717 459.64 380.391 459.134 379.884 458.692C379.383 458.246 378.708 458.023 377.859 458.023C377.107 458.023 376.448 458.219 375.882 458.611C375.321 458.997 374.883 459.545 374.567 460.252C374.257 460.955 374.102 461.78 374.102 462.727C374.102 463.696 374.254 464.54 374.559 465.259C374.869 465.978 375.305 466.536 375.866 466.934C376.432 467.331 377.096 467.53 377.859 467.53C378.36 467.53 378.814 467.443 379.223 467.268C379.631 467.094 379.977 466.844 380.26 466.517C380.543 466.19 380.745 465.798 380.864 465.341H382.792C382.683 466.081 382.414 466.748 381.983 467.342C381.559 467.93 380.995 468.398 380.293 468.747C379.596 469.09 378.784 469.261 377.859 469.261ZM390.246 469.261C389.114 469.261 388.12 468.992 387.265 468.453C386.416 467.914 385.752 467.16 385.272 466.19C384.799 465.221 384.562 464.089 384.562 462.793C384.562 461.486 384.799 460.345 385.272 459.37C385.752 458.396 386.416 457.639 387.265 457.1C388.12 456.561 389.114 456.291 390.246 456.291C391.379 456.291 392.37 456.561 393.219 457.1C394.074 457.639 394.739 458.396 395.212 459.37C395.691 460.345 395.931 461.486 395.931 462.793C395.931 464.089 395.691 465.221 395.212 466.19C394.739 467.16 394.074 467.914 393.219 468.453C392.37 468.992 391.379 469.261 390.246 469.261ZM390.246 467.53C391.107 467.53 391.815 467.309 392.37 466.868C392.925 466.427 393.337 465.847 393.603 465.129C393.87 464.41 394.004 463.631 394.004 462.793C394.004 461.954 393.87 461.173 393.603 460.449C393.337 459.724 392.925 459.139 392.37 458.692C391.815 458.246 391.107 458.023 390.246 458.023C389.386 458.023 388.678 458.246 388.123 458.692C387.567 459.139 387.156 459.724 386.89 460.449C386.623 461.173 386.489 461.954 386.489 462.793C386.489 463.631 386.623 464.41 386.89 465.129C387.156 465.847 387.567 466.427 388.123 466.868C388.678 467.309 389.386 467.53 390.246 467.53ZM398.413 469V456.455H400.276V458.349H400.406C400.635 457.729 401.049 457.225 401.648 456.838C402.247 456.452 402.922 456.259 403.673 456.259C403.815 456.259 403.992 456.261 404.204 456.267C404.417 456.272 404.577 456.28 404.686 456.291V458.251C404.621 458.235 404.471 458.211 404.237 458.178C404.008 458.14 403.766 458.121 403.51 458.121C402.9 458.121 402.356 458.249 401.877 458.505C401.403 458.755 401.027 459.104 400.749 459.55C400.477 459.991 400.341 460.495 400.341 461.061V469H398.413ZM410.203 469.294C409.408 469.294 408.686 469.144 408.038 468.845C407.39 468.54 406.876 468.102 406.495 467.53C406.114 466.953 405.923 466.256 405.923 465.439C405.923 464.72 406.065 464.138 406.348 463.691C406.631 463.239 407.009 462.885 407.483 462.629C407.957 462.373 408.479 462.183 409.051 462.058C409.628 461.927 410.208 461.823 410.791 461.747C411.553 461.649 412.171 461.576 412.645 461.527C413.124 461.472 413.473 461.382 413.69 461.257C413.914 461.132 414.025 460.914 414.025 460.604V460.538C414.025 459.732 413.805 459.106 413.364 458.66C412.928 458.213 412.267 457.99 411.379 457.99C410.459 457.99 409.737 458.192 409.215 458.594C408.692 458.997 408.324 459.428 408.112 459.885L406.282 459.232C406.609 458.469 407.045 457.876 407.589 457.451C408.139 457.021 408.738 456.721 409.386 456.553C410.039 456.378 410.682 456.291 411.314 456.291C411.717 456.291 412.179 456.34 412.702 456.438C413.23 456.531 413.739 456.724 414.229 457.018C414.725 457.312 415.136 457.756 415.463 458.349C415.789 458.943 415.953 459.738 415.953 460.734V469H414.025V467.301H413.927C413.797 467.573 413.579 467.865 413.274 468.175C412.969 468.485 412.563 468.75 412.057 468.967C411.55 469.185 410.932 469.294 410.203 469.294ZM410.497 467.562C411.259 467.562 411.902 467.413 412.424 467.113C412.953 466.814 413.35 466.427 413.617 465.953C413.889 465.48 414.025 464.982 414.025 464.459V462.695C413.944 462.793 413.764 462.882 413.486 462.964C413.214 463.04 412.898 463.108 412.539 463.168C412.185 463.223 411.839 463.272 411.501 463.315C411.169 463.353 410.9 463.386 410.693 463.413C410.192 463.479 409.724 463.585 409.288 463.732C408.858 463.873 408.509 464.089 408.243 464.377C407.981 464.66 407.851 465.047 407.851 465.537C407.851 466.207 408.098 466.713 408.594 467.056C409.095 467.394 409.729 467.562 410.497 467.562ZM424.467 456.455V458.088H417.966V456.455H424.467ZM419.86 453.449H421.788V465.406C421.788 465.951 421.867 466.359 422.025 466.631C422.188 466.898 422.395 467.078 422.646 467.17C422.902 467.258 423.171 467.301 423.454 467.301C423.667 467.301 423.841 467.29 423.977 467.268C424.113 467.241 424.222 467.219 424.304 467.203L424.696 468.935C424.565 468.984 424.383 469.033 424.148 469.082C423.914 469.136 423.618 469.163 423.258 469.163C422.714 469.163 422.18 469.046 421.657 468.812C421.14 468.578 420.71 468.221 420.367 467.742C420.029 467.263 419.86 466.659 419.86 465.929V453.449ZM431.868 469.261C430.736 469.261 429.742 468.992 428.887 468.453C428.038 467.914 427.373 467.16 426.894 466.19C426.421 465.221 426.184 464.089 426.184 462.793C426.184 461.486 426.421 460.345 426.894 459.37C427.373 458.396 428.038 457.639 428.887 457.1C429.742 456.561 430.736 456.291 431.868 456.291C433.001 456.291 433.992 456.561 434.841 457.1C435.696 457.639 436.361 458.396 436.834 459.37C437.313 460.345 437.553 461.486 437.553 462.793C437.553 464.089 437.313 465.221 436.834 466.19C436.361 467.16 435.696 467.914 434.841 468.453C433.992 468.992 433.001 469.261 431.868 469.261ZM431.868 467.53C432.729 467.53 433.437 467.309 433.992 466.868C434.547 466.427 434.958 465.847 435.225 465.129C435.492 464.41 435.625 463.631 435.625 462.793C435.625 461.954 435.492 461.173 435.225 460.449C434.958 459.724 434.547 459.139 433.992 458.692C433.437 458.246 432.729 458.023 431.868 458.023C431.008 458.023 430.3 458.246 429.745 458.692C429.189 459.139 428.778 459.724 428.511 460.449C428.245 461.173 428.111 461.954 428.111 462.793C428.111 463.631 428.245 464.41 428.511 465.129C428.778 465.847 429.189 466.427 429.745 466.868C430.3 467.309 431.008 467.53 431.868 467.53ZM440.035 469V456.455H441.898V458.349H442.028C442.257 457.729 442.671 457.225 443.27 456.838C443.869 456.452 444.544 456.259 445.295 456.259C445.437 456.259 445.614 456.261 445.826 456.267C446.039 456.272 446.199 456.28 446.308 456.291V458.251C446.243 458.235 446.093 458.211 445.859 458.178C445.63 458.14 445.388 458.121 445.132 458.121C444.522 458.121 443.978 458.249 443.498 458.505C443.025 458.755 442.649 459.104 442.371 459.55C442.099 459.991 441.963 460.495 441.963 461.061V469H440.035Z" fill="black"/>
</svg>
